<svg xmlns="http://www.w3.org/2000/svg" viewBox="0 0 82.53 73.93"><defs><style>.cls-1{fill:#4d4d4d;}.cls-2{fill:#bababa;}</style></defs><title>Asset 3</title><g id="Layer_2" data-name="Layer 2"><g id="Layer_1-2" data-name="Layer 1"><path class="cls-1" d="M8.39,40,41.27,11.81,74.14,40a5,5,0,0,0,6.75-7.43l-10-8.65V7.32a2.48,2.48,0,0,0-2.48-2.48H62a2.48,2.48,0,0,0-2.47,2.48v6.83L44.64,1.31a5,5,0,0,0-6.75,0L1.64,32.56a5,5,0,0,0-.34,7.09C2.29,40.75,6.06,42.33,8.39,40Z"/><path class="cls-2" d="M54.47,73.93H68.19a2.49,2.49,0,0,0,2.49-2.48V45.34a6.22,6.22,0,0,0-1.88-4.1l-25.64-22c-1-.88-2.73-.88-3.29,0l-25.65,22a5.13,5.13,0,0,0-2.34,4.09V71.45a2.49,2.49,0,0,0,2.49,2.48H28.49A2.48,2.48,0,0,0,31,71.45V49.25a2.48,2.48,0,0,1,2.49-2.48H49.52A2.49,2.49,0,0,1,52,49.25v22.2A2.47,2.47,0,0,0,54.47,73.93ZM41.27,38.45a4.09,4.09,0,1,1,4.09-4.09A4.1,4.1,0,0,1,41.27,38.45Z"/></g></g></svg>