<svg xmlns="http://www.w3.org/2000/svg" viewBox="0 0 87.76 84.67"><defs><style>.cls-1{fill:#bababa;}.cls-2{fill:#4d4d4d;}</style></defs><title>Asset 4</title><g id="Layer_2" data-name="Layer 2"><g id="Layer_1-2" data-name="Layer 1"><rect class="cls-1" x="31.98" y="47.04" width="10.19" height="7.08"/><rect class="cls-1" x="31.98" y="59.78" width="10.19" height="7.08"/><rect class="cls-1" x="31.98" y="34.18" width="10.19" height="7.08"/><rect class="cls-1" x="46.5" y="47.1" width="10.19" height="7.08"/><rect class="cls-1" x="46.5" y="59.84" width="10.19" height="7.08"/><rect class="cls-1" x="46.5" y="34.25" width="10.19" height="7.08"/><rect class="cls-1" x="31.99" y="21.32" width="10.19" height="7.08"/><rect class="cls-1" x="46.51" y="21.39" width="10.19" height="7.08"/><path class="cls-2" d="M82.88,78.75A6.66,6.66,0,0,0,83,77.6V38.52a6.6,6.6,0,0,0-6.59-6.59H67.53a6.2,6.2,0,0,0-.94.1V17A6.6,6.6,0,0,0,60,10.43H52.51V0H48V10.43H29.24A6.6,6.6,0,0,0,22.65,17v15a6.51,6.51,0,0,0-1.5-.19H12.27a6.6,6.6,0,0,0-6.59,6.59V77.54a6.7,6.7,0,0,0,.12,1.22H0v5.91H87.76V78.75Zm-16-12.05V59.62H77.06V66.7ZM77.06,55.84H66.87V48.76H77.06ZM66.87,37.78H77.06v7.08H66.87V37.78ZM28.3,17a.94.94,0,0,1,.94-.94H60a.94.94,0,0,1,.94.94V78.55H28.3ZM21.8,66.64H11.61V59.55H21.8Zm0-10.86H11.61V48.7H21.8ZM11.61,37.72H21.8v7.08H11.61V37.72Z"/></g></g></svg>