<svg xmlns="http://www.w3.org/2000/svg" viewBox="0 0 95.3 67.06"><defs><style>.cls-1{fill:#4d4d4d;}.cls-2{fill:#bababa;}</style></defs><title>Asset 5</title><g id="Layer_2" data-name="Layer 2"><g id="Layer_1-2" data-name="Layer 1"><path class="cls-1" d="M15,33.52C15,18.18,19.93,5.21,26.73.89,11.6,3.37,0,17,0,33.52S11.59,63.68,26.73,66.16C19.94,61.86,15,48.88,15,33.52Z"/><path class="cls-2" d="M81,28.2a17.76,17.76,0,0,0,1.73-5.46h0c.06-.35.1-.7.13-1.06,0-.2,0-.41,0-.62s0-.39,0-.59,0-.43,0-.63,0-.42,0-.63,0-.44,0-.65-.06-.68-.11-1c0-.18-.06-.36-.09-.55s-.09-.45-.13-.68-.07-.36-.12-.54-.13-.53-.21-.79-.07-.27-.11-.39c-.12-.38-.25-.74-.4-1.11-.06-.15-.11-.28-.17-.43s-.22-.51-.34-.76-.14-.27-.2-.41c-.17-.31-.33-.64-.52-.95l-.09-.16c-.22-.37-.45-.72-.69-1.06l-.24-.32c-.19-.26-.39-.51-.59-.75l-.26-.31c-.28-.33-.58-.65-.9-1a18,18,0,0,0-25.39,0c-.3.31-.59.62-.87.95l-.18.22c-.27.32-.53.64-.78,1l-.05.08c-.24.33-.46.66-.66,1l-.1.15c-.22.37-.43.74-.62,1.12l0,.07c-.19.38-.37.78-.54,1.17,0,0,0,0,0,0-.18.41-.32.83-.47,1.25a.1.1,0,0,1,0,0,16.82,16.82,0,0,0-.64,2.6h0a18,18,0,0,0,25.82,19L86.41,49.31a3.51,3.51,0,0,0,5,0l2.9-2.9a3.51,3.51,0,0,0,0-5ZM73.81,11.28a11.38,11.38,0,0,1,.93,1c.09.11.17.23.26.34.19.27.38.53.55.8s.15.26.23.39.31.56.45.85l.17.35c.15.33.28.66.4,1l.07.23a12.41,12.41,0,1,1-23.18-1.2,2.37,2.37,0,0,1,.11-.23,9.12,9.12,0,0,1,.51-1l.18-.33c.19-.29.39-.58.6-.87l.23-.3a10.36,10.36,0,0,1,.95-1.08A12.39,12.39,0,0,1,73.81,11.28Z"/><path class="cls-1" d="M39.29,67.06A33.59,33.59,0,0,0,72.17,40.12a20.92,20.92,0,0,1-4.07,1c-.25.94-.54,1.86-.87,2.76H56.45c.22-1.3.4-2.63.54-4a21.42,21.42,0,0,1-3.59-1.82,56.47,56.47,0,0,1-.75,5.81H41.17V35.39h8.76a21.33,21.33,0,0,1-3.07-3.72h-5.7V22.86h2.42A21.53,21.53,0,0,1,43.4,20c0-.29,0-.56,0-.85H41.17V4a11.33,11.33,0,0,1,5.65,4.36,21.46,21.46,0,0,1,5.46-5.73A33.24,33.24,0,0,0,39.31,0c-10.09,0-18,14.72-18,33.52S29.2,67.06,39.29,67.06ZM55.68,47.65h9.85a30,30,0,0,1-16.28,14A35.25,35.25,0,0,0,55.68,47.65Zm-14.52,0H51.8c-2.16,8.16-6.11,14.11-10.65,15.41ZM37.43,4V19.13H26.85C29,11.11,32.94,5.28,37.43,4ZM26,22.86H37.43v8.81H25A57.23,57.23,0,0,1,26,22.86ZM25,35.39H37.43v8.54H25.94A57,57,0,0,1,25,35.39ZM37.43,47.65V63.06c-4.55-1.3-8.49-7.26-10.65-15.41Z"/></g></g></svg>